<svg width="75px" height="26px" viewBox="0 0 75 26" version="1.1" xmlns="http://www.w3.org/2000/svg" xmlns:xlink="http://www.w3.org/1999/xlink">
    <!-- Generator: Sketch 43.2 (39069) - http://www.bohemiancoding.com/sketch -->
    <desc>Created with Sketch.</desc>
    <defs></defs>
    <g id="Page-1" stroke="none" stroke-width="1" fill="none" fill-rule="evenodd">
        <g id="logo" fill-rule="nonzero" fill="#ffffff">
            <path d="M9.802,9.182 C9.874,9.687 9.739,10.129 9.396,10.508 C9.053,10.886 8.629,11.086 8.125,11.102 C7.422,11.139 6.917,10.824 6.611,10.156 L6.8,10.156 C6.89,10.175 6.944,10.183 6.962,10.183 C7.287,10.183 7.449,10.021 7.449,9.696 C7.468,9.588 7.408,9.498 7.274,9.425 C7.139,9.353 6.999,9.317 6.855,9.317 C6.368,9.336 6.079,9.642 5.989,10.236 C5.935,10.653 6.395,11.346 7.368,12.321 C8.45,13.403 9.054,14.169 9.18,14.62 C9.252,14.891 9.289,15.143 9.289,15.378 C9.289,16.28 8.82,17.002 7.882,17.542 C7.07,18.012 6.096,18.265 4.96,18.3 C3.806,18.336 2.841,18.174 2.066,17.813 C1.074,17.344 0.605,16.614 0.659,15.623 C0.695,15.009 0.939,14.49 1.388,14.066 C1.84,13.642 2.434,13.448 3.174,13.484 C4.022,13.52 4.446,13.989 4.446,14.891 C4.446,15.017 4.437,15.135 4.418,15.242 C4.256,15.026 3.959,14.936 3.526,14.972 C3.11,15.008 2.922,15.225 2.958,15.622 C2.976,15.91 3.237,16.072 3.742,16.108 C4.283,16.145 4.703,16.036 5,15.784 C5.297,15.531 5.428,15.207 5.393,14.81 C5.374,14.52 5.086,14.106 4.527,13.565 C3.788,12.862 3.301,12.347 3.066,12.023 C2.579,11.337 2.381,10.615 2.471,9.857 C2.543,9.28 2.877,8.757 3.472,8.288 C4.23,7.693 5.221,7.377 6.447,7.341 C8.521,7.27 9.64,7.883 9.802,9.182 Z" id="Shape"></path>
            <path d="M17.05,13.971 C16.546,14.928 15.851,15.793 14.968,16.569 C13.76,17.615 12.551,18.137 11.343,18.137 C10.784,18.137 10.355,17.957 10.058,17.597 C9.761,17.236 9.62,16.767 9.638,16.189 C9.656,15.594 9.841,14.674 10.193,13.429 C10.544,12.184 10.721,11.517 10.721,11.427 C10.721,10.958 10.558,10.724 10.233,10.724 C10.126,10.724 9.819,10.914 9.314,11.292 L8.692,10.562 C9.27,10.039 9.846,9.516 10.423,8.993 C11.198,8.307 11.776,7.946 12.155,7.91 C12.75,7.855 13.186,8.032 13.467,8.437 C13.746,8.842 13.849,9.37 13.778,10.02 C13.544,11.121 13.291,12.519 13.021,14.214 C13.003,14.99 13.282,15.377 13.86,15.377 C14.111,15.377 14.563,15.106 15.213,14.565 C15.753,14.114 16.195,13.69 16.538,13.294 L17.05,13.971 Z M14.698,4.339 C14.679,4.79 14.454,5.223 14.022,5.636 C13.535,6.106 12.957,6.34 12.29,6.34 C11.263,6.34 10.766,5.89 10.803,4.988 C10.82,4.518 11.095,4.067 11.627,3.634 C12.159,3.201 12.75,2.985 13.399,2.985 C13.777,2.985 14.093,3.133 14.346,3.431 C14.599,3.729 14.715,4.032 14.698,4.339 Z" id="Shape"></path>
            <path d="M28.52,14.106 C27.528,15.171 25.833,16.308 23.435,17.516 C21.956,22.728 19.784,25.335 16.915,25.335 C14.986,25.335 14.103,24.459 14.265,22.711 C14.355,21.699 15.022,20.744 16.266,19.842 C17.149,19.211 18.556,18.462 20.486,17.598 C20.702,16.948 20.873,16.343 20.999,15.785 C19.556,17.318 18.06,18.075 16.509,18.057 C15.446,18.039 14.706,17.616 14.291,16.786 C14.002,16.173 13.894,15.424 13.966,14.54 C14.129,12.645 14.886,11.054 16.239,9.764 C17.592,8.475 19.214,7.83 21.107,7.83 C21.972,7.83 22.802,7.942 23.596,8.168 C24.389,8.394 24.867,8.651 25.03,8.939 C24.777,10.634 24.362,13.024 23.785,16.109 C25.823,15.135 27.256,14.233 28.086,13.403 L28.52,14.106 Z M19.675,19.328 C18.088,20.103 17.276,20.725 17.24,21.195 C17.221,21.447 17.357,21.574 17.646,21.574 C18.169,21.574 18.845,20.825 19.675,19.328 Z M21.136,11.346 C21.153,11.021 21.095,10.764 20.959,10.576 C20.824,10.386 20.585,10.301 20.242,10.318 C19.52,10.355 18.836,10.878 18.186,11.887 C17.646,12.753 17.357,13.511 17.321,14.16 C17.285,14.828 17.583,15.161 18.214,15.161 C18.845,15.161 19.485,14.683 20.134,13.728 C20.747,12.844 21.081,12.049 21.136,11.346 Z" id="Shape"></path>
            <path d="M38.636,13.971 C38.131,14.928 37.436,15.793 36.553,16.569 C35.344,17.615 34.137,18.137 32.929,18.137 C31.756,18.137 31.189,17.488 31.225,16.189 C31.243,15.594 31.348,14.886 31.537,14.065 C31.724,13.245 31.829,12.618 31.848,12.184 C31.883,11.517 31.702,11.184 31.303,11.184 C30.703,11.184 30.049,11.662 29.341,12.619 C28.56,13.665 28.152,14.774 28.115,15.946 C28.078,17.101 28.142,17.868 28.305,18.247 C26.068,18.301 24.95,17.454 24.95,15.704 C24.95,15.522 24.959,15.335 24.978,15.136 C25.284,14.09 25.59,12.801 25.897,11.266 C25.915,10.906 25.834,10.725 25.653,10.725 C25.545,10.725 25.237,10.915 24.734,11.293 L24.112,10.563 C24.201,10.491 24.77,9.959 25.816,8.966 C26.555,8.263 27.061,7.911 27.331,7.911 C28.16,7.911 28.576,8.497 28.576,9.669 C28.576,9.94 28.549,10.211 28.495,10.481 C28.946,10.065 29.405,9.705 29.874,9.398 C30.992,8.678 32.064,8.272 33.093,8.181 C33.958,8.11 34.581,8.317 34.959,8.804 C35.283,9.201 35.428,9.769 35.391,10.509 C35.373,11.014 35.252,11.748 35.026,12.714 C34.801,13.68 34.688,14.234 34.688,14.378 C34.67,14.757 34.706,15.019 34.796,15.163 C34.886,15.309 35.102,15.38 35.445,15.38 C35.697,15.38 36.149,15.109 36.798,14.568 C37.34,14.117 37.781,13.693 38.124,13.297 L38.636,13.971 Z" id="Shape"></path>
            <path d="M49.752,13.971 C49.247,14.928 48.554,15.793 47.67,16.569 C46.462,17.615 45.252,18.137 44.043,18.137 C42.872,18.137 42.315,17.533 42.368,16.324 C41.898,16.776 41.276,17.174 40.501,17.515 C39.637,17.894 38.852,18.074 38.148,18.056 C37.121,18.038 36.407,17.615 36.011,16.785 C35.722,16.189 35.614,15.469 35.686,14.62 C35.813,13.339 36.335,12.104 37.256,10.914 C38.482,9.327 40.087,8.379 42.07,8.072 C42.412,8.018 42.755,7.991 43.098,7.991 C43.872,7.991 44.567,8.109 45.18,8.343 C45.793,8.577 46.181,8.848 46.343,9.154 C46.108,9.84 45.947,10.345 45.856,10.671 C45.623,11.644 45.479,12.745 45.424,13.971 C45.388,14.819 45.704,15.242 46.37,15.242 C46.766,15.242 47.289,14.991 47.938,14.484 C48.444,14.106 48.876,13.709 49.238,13.295 L49.752,13.971 Z M42.854,11.454 C42.872,11.095 42.854,10.842 42.8,10.697 C42.692,10.463 42.476,10.355 42.152,10.373 C41.43,10.409 40.735,10.896 40.069,11.834 C39.474,12.664 39.166,13.376 39.149,13.972 C39.131,14.729 39.401,15.108 39.961,15.108 C40.591,15.108 41.232,14.648 41.88,13.729 C42.494,12.862 42.818,12.104 42.854,11.454 Z" id="Shape"></path>
            <path d="M57.569,11.671 C57.442,13.042 56.956,14.322 56.108,15.513 C54.935,17.155 53.34,18.092 51.322,18.326 C51.086,18.362 50.861,18.381 50.643,18.381 C49.401,18.381 48.471,17.945 47.857,17.079 C47.407,16.446 47.191,15.76 47.209,15.018 C47.246,14.007 47.362,12.525 47.562,10.573 C47.814,8.224 47.958,6.769 47.995,6.209 C48.066,5.287 47.914,4.592 47.534,4.122 C47.3,3.834 47.064,3.689 46.83,3.689 C46.523,3.689 46.218,3.761 45.911,3.906 C46.668,1.957 47.887,1.01 49.563,1.064 C51.042,1.118 51.77,2.032 51.752,3.805 C51.734,4.999 51.337,7.224 50.563,10.481 C51.988,8.929 53.465,8.163 54.999,8.18 C56.063,8.199 56.811,8.622 57.244,9.452 C57.533,10.047 57.641,10.787 57.569,11.671 Z M53.89,11.996 C53.909,11.329 53.628,10.995 53.052,10.995 C52.421,10.995 51.771,11.473 51.104,12.429 C50.473,13.313 50.131,14.106 50.077,14.81 C50.059,15.117 50.121,15.369 50.266,15.567 C50.411,15.765 50.655,15.856 50.996,15.838 C51.717,15.803 52.403,15.278 53.052,14.268 C53.593,13.403 53.872,12.645 53.89,11.996 Z" id="Shape"></path>
            <path d="M64.764,13.971 C64.26,14.928 63.564,15.793 62.681,16.569 C61.473,17.615 60.266,18.137 59.057,18.137 C58.498,18.137 58.07,17.957 57.772,17.597 C57.474,17.236 57.335,16.767 57.353,16.189 C57.389,15.125 57.615,13.168 58.029,10.317 C58.227,8.893 58.434,7.459 58.652,6.015 C58.722,5.077 58.552,4.392 58.137,3.959 C57.866,3.671 57.605,3.526 57.353,3.526 C57.045,3.526 56.749,3.58 56.46,3.689 C57.199,1.759 58.408,0.821 60.084,0.874 C61.635,0.928 62.383,1.84 62.33,3.607 C62.292,4.527 62.018,6.435 61.504,9.33 C60.99,12.225 60.733,13.852 60.733,14.214 C60.714,14.99 60.995,15.377 61.572,15.377 C61.824,15.377 62.274,15.106 62.924,14.565 C63.466,14.114 63.907,13.69 64.25,13.294 L64.764,13.971 Z" id="Shape"></path>
            <path d="M74.393,13.943 C73.869,14.81 72.842,15.676 71.31,16.541 C69.399,17.642 67.46,18.191 65.495,18.191 C64.034,18.191 62.988,17.705 62.356,16.731 C61.906,16.063 61.689,15.269 61.707,14.349 C61.726,12.889 62.375,11.5 63.655,10.182 C65.062,8.739 66.721,8.017 68.632,8.017 C70.4,8.017 71.337,8.739 71.444,10.182 C71.516,11.101 71.012,12.049 69.931,13.023 C68.776,14.087 67.324,14.764 65.576,15.053 C65.9,15.503 66.387,15.729 67.036,15.729 C68.334,15.729 69.75,15.396 71.283,14.728 C72.383,14.259 73.248,13.772 73.88,13.267 L74.393,13.943 Z M68.253,11.102 C68.271,10.616 68.071,10.373 67.657,10.373 C67.116,10.373 66.566,10.747 66.008,11.496 C65.448,12.245 65.16,12.961 65.142,13.646 L65.142,13.998 C66.026,13.674 66.791,13.177 67.442,12.51 C67.964,11.933 68.234,11.464 68.253,11.102 Z" id="Shape"></path>
        </g>
    </g>
</svg>